<mxfile host="Electron" modified="2023-08-14T11:55:40.284Z" agent="Mozilla/5.0 (Macintosh; Intel Mac OS X 10_15_7) AppleWebKit/537.36 (KHTML, like Gecko) draw.io/21.6.5 Chrome/114.0.5735.243 Electron/25.3.1 Safari/537.36" etag="Waai1t4avlBE--272x0f" version="21.6.5" type="device">
  <diagram name="API-Messenger-Service" id="VJmnjxaGHHmpje8je5-Q">
    <mxGraphModel dx="1037" dy="607" grid="1" gridSize="10" guides="1" tooltips="1" connect="1" arrows="1" fold="1" page="1" pageScale="1" pageWidth="827" pageHeight="1169" math="0" shadow="0">
      <root>
        <mxCell id="0" />
        <mxCell id="1" parent="0" />
        <UserObject label="&lt;div style=&quot;font-size: 1px&quot;&gt;&lt;p style=&quot;text-align:left;margin-left:0;margin-right:0;margin-top:0px;margin-bottom:0px;text-indent:0;vertical-align:top;direction:ltr;&quot;&gt;&lt;font style=&quot;font-size:11.29px;font-family:Arial;color:#0070c0;direction:ltr;letter-spacing:0px;line-height:120%;opacity:1&quot;&gt;extern&lt;br/&gt;&lt;/font&gt;&lt;/p&gt;&lt;/div&gt;" tags="Hintergrund" id="YiMSiMVtn8OKMZa1fjgc-1">
          <mxCell style="verticalAlign=top;align=left;overflow=width;vsdxID=53;fillColor=#FFFFFF;gradientColor=none;shape=stencil(nZBLDoAgDERP0z3SIyjew0SURgSD+Lu9kMZoXLhwN9O+tukAlrNpJg1SzDH4QW/URgNYgZTkjA4UkwJUgGXng+6DX1zLfmoymdXo17xh5zmRJ6Q42BWCfc2oJfdAr+Yv+AP9Cb7OJ3H/2JG1HNGz/84klThPVCc=);dashed=1;strokeColor=#0070c0;points=[];labelBackgroundColor=none;rounded=0;html=1;whiteSpace=wrap;" vertex="1" parent="1">
            <mxGeometry x="45.98" y="5.98" width="84" height="358" as="geometry" />
          </mxCell>
        </UserObject>
        <UserObject label="&lt;div style=&quot;font-size: 1px&quot;&gt;&lt;p style=&quot;text-align:left;margin-left:0;margin-right:0;margin-top:0px;margin-bottom:0px;text-indent:0;vertical-align:top;direction:ltr;&quot;&gt;&lt;font style=&quot;font-size:11.29px;font-family:Arial;color:#0070c0;direction:ltr;letter-spacing:0px;line-height:120%;opacity:1&quot;&gt;extern&lt;br/&gt;&lt;/font&gt;&lt;/p&gt;&lt;/div&gt;" tags="Hintergrund" id="YiMSiMVtn8OKMZa1fjgc-2">
          <mxCell style="verticalAlign=top;align=left;overflow=width;vsdxID=52;fillColor=#FFFFFF;gradientColor=none;shape=stencil(nZBLDoAgDERP0z3SIyjew0SURgSD+Lu9kMZoXLhwN9O+tukAlrNpJg1SzDH4QW/URgNYgZTkjA4UkwJUgGXng+6DX1zLfmoymdXo17xh5zmRJ6Q42BWCfc2oJfdAr+Yv+AP9Cb7OJ3H/2JG1HNGz/84klThPVCc=);dashed=1;strokeColor=#0070c0;points=[];labelBackgroundColor=none;rounded=0;html=1;whiteSpace=wrap;" vertex="1" parent="1">
            <mxGeometry x="456" y="10" width="94" height="358" as="geometry" />
          </mxCell>
        </UserObject>
        <UserObject label="&lt;div style=&quot;font-size: 1px&quot;&gt;&lt;p style=&quot;text-align:left;margin-left:0;margin-right:0;margin-top:0px;margin-bottom:0px;text-indent:0;vertical-align:top;direction:ltr;&quot;&gt;&lt;font style=&quot;font-size:11.29px;font-family:Arial;color:#0070c0;direction:ltr;letter-spacing:0px;line-height:120%;opacity:1&quot;&gt;intern&lt;br/&gt;&lt;/font&gt;&lt;/p&gt;&lt;/div&gt;" tags="Hintergrund" id="YiMSiMVtn8OKMZa1fjgc-3">
          <mxCell style="verticalAlign=top;align=left;overflow=width;vsdxID=51;fillColor=#FFFFFF;gradientColor=none;shape=stencil(nZBLDoAgDERP0z3SIyjew0SURgSD+Lu9kMZoXLhwN9O+tukAlrNpJg1SzDH4QW/URgNYgZTkjA4UkwJUgGXng+6DX1zLfmoymdXo17xh5zmRJ6Q42BWCfc2oJfdAr+Yv+AP9Cb7OJ3H/2JG1HNGz/84klThPVCc=);dashed=1;strokeColor=#0070c0;points=[];labelBackgroundColor=none;rounded=0;html=1;whiteSpace=wrap;" vertex="1" parent="1">
            <mxGeometry x="143" y="284" width="301" height="86" as="geometry" />
          </mxCell>
        </UserObject>
        <UserObject label="&lt;div style=&quot;font-size: 1px&quot;&gt;&lt;font style=&quot;font-size:16.93px;font-family:Calibri;color:#000000;direction:ltr;letter-spacing:0px;line-height:120%;opacity:1&quot;&gt;Messenger-Service&lt;br/&gt;&lt;/font&gt;&lt;/div&gt;" tags="Hintergrund" id="YiMSiMVtn8OKMZa1fjgc-4">
          <mxCell style="verticalAlign=top;align=center;overflow=width;vsdxID=1;fillColor=#f2f2f2;gradientColor=none;shape=stencil(nZBLDoAgDERP0z3SIyjew0SURgSD+Lu9kMZoXLhwN9O+tukAlrNpJg1SzDH4QW/URgNYgZTkjA4UkwJUgGXng+6DX1zLfmoymdXo17xh5zmRJ6Q42BWCfc2oJfdAr+Yv+AP9Cb7OJ3H/2JG1HNGz/84klThPVCc=);points=[];labelBackgroundColor=none;rounded=0;html=1;whiteSpace=wrap;" vertex="1" parent="1">
            <mxGeometry x="142" y="10" width="301" height="269" as="geometry" />
          </mxCell>
        </UserObject>
        <UserObject label="&lt;div style=&quot;font-size: 1px&quot;&gt;&lt;font style=&quot;font-size:14.11px;font-family:Arial;color:#000000;direction:ltr;letter-spacing:0px;line-height:120%;opacity:1&quot;&gt;Matrix- Homeserver&lt;br/&gt;&lt;/font&gt;&lt;/div&gt;" tags="Hintergrund" id="YiMSiMVtn8OKMZa1fjgc-5">
          <mxCell style="verticalAlign=middle;align=center;overflow=width;vsdxID=2;fillColor=#FFFFFF;gradientColor=none;shape=stencil(nZBLDoAgDERP0z3SIyjew0SURgSD+Lu9kMZoXLhwN9O+tukAlrNpJg1SzDH4QW/URgNYgZTkjA4UkwJUgGXng+6DX1zLfmoymdXo17xh5zmRJ6Q42BWCfc2oJfdAr+Yv+AP9Cb7OJ3H/2JG1HNGz/84klThPVCc=);strokeWidth=2;spacingTop=-1;spacingBottom=-1;spacingLeft=-1;spacingRight=-1;points=[[0.5,0,0],[1,0.5,0],[0.5,0.5,0],[0.5,0.5,0]];labelBackgroundColor=none;rounded=0;html=1;whiteSpace=wrap;" vertex="1" parent="1">
            <mxGeometry x="160" y="112" width="84" height="123" as="geometry" />
          </mxCell>
        </UserObject>
        <mxCell id="YiMSiMVtn8OKMZa1fjgc-59" style="edgeStyle=none;rounded=0;orthogonalLoop=1;jettySize=auto;html=1;exitX=1;exitY=0.564;exitDx=0;exitDy=0;exitPerimeter=0;entryX=0;entryY=0.5;entryDx=0;entryDy=0;endArrow=none;endFill=0;" edge="1" parent="1" source="YiMSiMVtn8OKMZa1fjgc-20" target="YiMSiMVtn8OKMZa1fjgc-57">
          <mxGeometry relative="1" as="geometry" />
        </mxCell>
        <UserObject label="&lt;div style=&quot;font-size: 1px&quot;&gt;&lt;font style=&quot;font-size:14.11px;font-family:Arial;color:#000000;direction:ltr;letter-spacing:0px;line-height:120%;opacity:1&quot;&gt;Messenger-&lt;br/&gt;Proxy&lt;br/&gt;&lt;/font&gt;&lt;/div&gt;" tags="Hintergrund" id="YiMSiMVtn8OKMZa1fjgc-20">
          <mxCell style="verticalAlign=middle;align=center;overflow=width;vsdxID=19;fillColor=#FFFFFF;gradientColor=none;shape=stencil(nZBLDoAgDERP0z3SIyjew0SURgSD+Lu9kMZoXLhwN9O+tukAlrNpJg1SzDH4QW/URgNYgZTkjA4UkwJUgGXng+6DX1zLfmoymdXo17xh5zmRJ6Q42BWCfc2oJfdAr+Yv+AP9Cb7OJ3H/2JG1HNGz/84klThPVCc=);strokeColor=#000000;strokeWidth=2;spacingTop=-1;spacingBottom=-1;spacingLeft=-1;spacingRight=-1;points=[[0.5,0,0],[1,0.5,0],[0.5,0.5,0],[0.5,0.5,0]];labelBackgroundColor=none;rounded=0;html=1;whiteSpace=wrap;" vertex="1" parent="1">
            <mxGeometry x="344" y="50" width="84" height="194" as="geometry" />
          </mxCell>
        </UserObject>
        <mxCell id="YiMSiMVtn8OKMZa1fjgc-35" vertex="1" parent="1">
          <mxGeometry x="386" y="362" as="geometry" />
        </mxCell>
        <UserObject label="" tags="Hintergrund" id="YiMSiMVtn8OKMZa1fjgc-36">
          <mxCell style="vsdxID=20;edgeStyle=none;startArrow=none;endArrow=none;startSize=5;endSize=5;strokeColor=#000000;spacingTop=-3;spacingBottom=-3;spacingLeft=-2;spacingRight=-2;verticalAlign=middle;html=1;labelBackgroundColor=#ffffff;rounded=0;exitX=0.5;exitY=1;exitDx=0;exitDy=0;exitPerimeter=0;entryX=0.5;entryY=0;entryDx=0;entryDy=0;" edge="1" parent="1" source="YiMSiMVtn8OKMZa1fjgc-20" target="YiMSiMVtn8OKMZa1fjgc-43">
            <mxGeometry relative="1" as="geometry">
              <Array as="points" />
              <mxPoint x="390" y="290" as="targetPoint" />
            </mxGeometry>
          </mxCell>
        </UserObject>
        <mxCell id="YiMSiMVtn8OKMZa1fjgc-37" value="&lt;div style=&quot;font-size: 1px&quot;&gt;&lt;p style=&quot;text-align:center;margin-left:0;margin-right:0;margin-top:0px;margin-bottom:0px;text-indent:0;vertical-align:middle;direction:ltr;&quot;&gt;&lt;font style=&quot;font-size:11.29px;font-family:Arial;color:#000000;direction:ltr;letter-spacing:0px;line-height:120%;opacity:1&quot;&gt;Matrix - &lt;/font&gt;&lt;font style=&quot;font-size:11.29px;font-family:Arial;color:#000000;direction:ltr;letter-spacing:0px;line-height:120%;opacity:1&quot;&gt;Server&lt;br/&gt;&lt;/font&gt;&lt;/p&gt;&lt;p style=&quot;text-align:center;margin-left:0;margin-right:0;margin-top:0px;margin-bottom:0px;text-indent:0;vertical-align:middle;direction:ltr;&quot;&gt;&lt;font style=&quot;font-size:11.29px;font-family:Arial;color:#000000;direction:ltr;letter-spacing:0px;line-height:120%;opacity:1&quot;&gt;Server API&lt;/font&gt;&lt;font style=&quot;font-size:11.29px;font-family:Arial;color:#000000;direction:ltr;letter-spacing:0px;line-height:120%;opacity:1&quot;&gt;&lt;br/&gt;&lt;/font&gt;&lt;/p&gt;&lt;/div&gt;" style="text;vsdxID=20;edgeStyle=none;startArrow=none;endArrow=none;startSize=5;endSize=5;strokeColor=none;spacingTop=-3;spacingBottom=-3;spacingLeft=-2;spacingRight=-2;verticalAlign=middle;html=1;labelBackgroundColor=#ffffff;rounded=0;align=center;overflow=width;fillColor=none;gradientColor=none;whiteSpace=wrap;;html=1;;rotation=0;" vertex="1" parent="YiMSiMVtn8OKMZa1fjgc-36">
          <mxGeometry width="79.98" height="79.98" relative="1" as="geometry">
            <mxPoint x="-133" y="-92" as="offset" />
          </mxGeometry>
        </mxCell>
        <mxCell id="YiMSiMVtn8OKMZa1fjgc-38" value="" style="group" vertex="1" connectable="0" parent="1">
          <mxGeometry x="353" y="310" width="40" height="20" as="geometry" />
        </mxCell>
        <mxCell id="YiMSiMVtn8OKMZa1fjgc-39" value="" style="group" vertex="1" connectable="0" parent="YiMSiMVtn8OKMZa1fjgc-38">
          <mxGeometry width="40" height="20" as="geometry" />
        </mxCell>
        <mxCell id="YiMSiMVtn8OKMZa1fjgc-40" value="" style="group" vertex="1" connectable="0" parent="YiMSiMVtn8OKMZa1fjgc-39">
          <mxGeometry width="40" height="20" as="geometry" />
        </mxCell>
        <mxCell id="YiMSiMVtn8OKMZa1fjgc-41" value="" style="endArrow=classic;html=1;strokeColor=#000000;fontFamily=Helvetica;fontSize=14;fontColor=#525252;rounded=0;" edge="1" parent="YiMSiMVtn8OKMZa1fjgc-40">
          <mxGeometry width="50" height="50" relative="1" as="geometry">
            <mxPoint x="20" y="19" as="sourcePoint" />
            <mxPoint x="20" y="24" as="targetPoint" />
          </mxGeometry>
        </mxCell>
        <mxCell id="YiMSiMVtn8OKMZa1fjgc-42" value="R" style="text;html=1;strokeColor=none;fillColor=none;align=center;verticalAlign=middle;whiteSpace=wrap;overflow=hidden;fontFamily=Helvetica;fontSize=10;fontColor=#000000;fontStyle=1" vertex="1" parent="YiMSiMVtn8OKMZa1fjgc-40">
          <mxGeometry width="40" height="20" as="geometry" />
        </mxCell>
        <mxCell id="YiMSiMVtn8OKMZa1fjgc-43" value="" style="ellipse;whiteSpace=wrap;html=1;strokeColor=#1C1C1C;fillColor=none;fontFamily=Tahoma;fontSize=14;fontColor=#525252;align=center;strokeWidth=2;" vertex="1" parent="YiMSiMVtn8OKMZa1fjgc-40">
          <mxGeometry x="29" y="10" width="10" height="10" as="geometry" />
        </mxCell>
        <mxCell id="YiMSiMVtn8OKMZa1fjgc-50" style="edgeStyle=none;rounded=0;orthogonalLoop=1;jettySize=auto;html=1;exitX=1;exitY=0.5;exitDx=0;exitDy=0;entryX=0;entryY=0.278;entryDx=0;entryDy=0;entryPerimeter=0;endArrow=none;endFill=0;" edge="1" parent="1" source="YiMSiMVtn8OKMZa1fjgc-46" target="YiMSiMVtn8OKMZa1fjgc-20">
          <mxGeometry relative="1" as="geometry" />
        </mxCell>
        <mxCell id="YiMSiMVtn8OKMZa1fjgc-54" value="" style="endArrow=none;html=1;rounded=0;entryX=0.5;entryY=1;entryDx=0;entryDy=0;" edge="1" parent="1" target="YiMSiMVtn8OKMZa1fjgc-43">
          <mxGeometry width="50" height="50" relative="1" as="geometry">
            <mxPoint x="387" y="360" as="sourcePoint" />
            <mxPoint x="310" y="210" as="targetPoint" />
          </mxGeometry>
        </mxCell>
        <mxCell id="YiMSiMVtn8OKMZa1fjgc-55" value="" style="group" vertex="1" connectable="0" parent="1">
          <mxGeometry x="470" y="135" width="40" height="29" as="geometry" />
        </mxCell>
        <mxCell id="YiMSiMVtn8OKMZa1fjgc-56" value="R" style="text;html=1;strokeColor=none;fillColor=none;align=center;verticalAlign=middle;whiteSpace=wrap;overflow=hidden;fontFamily=Helvetica;fontSize=10;fontColor=#000000;fontStyle=1" vertex="1" parent="YiMSiMVtn8OKMZa1fjgc-55">
          <mxGeometry width="40" height="20" as="geometry" />
        </mxCell>
        <mxCell id="YiMSiMVtn8OKMZa1fjgc-58" style="edgeStyle=none;rounded=0;html=1;startArrow=none;startFill=0;endArrow=classic;endFill=1;jettySize=auto;orthogonalLoop=1;strokeColor=#000000;fontFamily=Helvetica;fontSize=10;fontColor=#000000;targetPerimeterSpacing=0;endSize=8;sourcePerimeterSpacing=0;startSize=0;" edge="1" parent="YiMSiMVtn8OKMZa1fjgc-55">
          <mxGeometry relative="1" as="geometry">
            <mxPoint x="36" y="10" as="targetPoint" />
            <mxPoint x="28" y="10" as="sourcePoint" />
          </mxGeometry>
        </mxCell>
        <mxCell id="YiMSiMVtn8OKMZa1fjgc-61" value="" style="endArrow=none;html=1;rounded=0;exitX=1;exitY=0.5;exitDx=0;exitDy=0;" edge="1" parent="1" source="YiMSiMVtn8OKMZa1fjgc-57">
          <mxGeometry width="50" height="50" relative="1" as="geometry">
            <mxPoint x="600" y="170" as="sourcePoint" />
            <mxPoint x="520" y="160" as="targetPoint" />
          </mxGeometry>
        </mxCell>
        <mxCell id="YiMSiMVtn8OKMZa1fjgc-62" value="&lt;div style=&quot;font-size: 1px&quot;&gt;&lt;p style=&quot;text-align:center;margin-left:0;margin-right:0;margin-top:0px;margin-bottom:0px;text-indent:0;vertical-align:middle;direction:ltr;&quot;&gt;&lt;font style=&quot;font-size:11.29px;font-family:Arial;color:#000000;direction:ltr;letter-spacing:0px;line-height:120%;opacity:1&quot;&gt;Matrix - &lt;/font&gt;&lt;font style=&quot;font-size:11.29px;font-family:Arial;color:#000000;direction:ltr;letter-spacing:0px;line-height:120%;opacity:1&quot;&gt;Server&lt;br/&gt;&lt;/font&gt;&lt;/p&gt;&lt;p style=&quot;text-align:center;margin-left:0;margin-right:0;margin-top:0px;margin-bottom:0px;text-indent:0;vertical-align:middle;direction:ltr;&quot;&gt;&lt;font style=&quot;font-size:11.29px;font-family:Arial;color:#000000;direction:ltr;letter-spacing:0px;line-height:120%;opacity:1&quot;&gt;Server API&lt;/font&gt;&lt;font style=&quot;font-size:11.29px;font-family:Arial;color:#000000;direction:ltr;letter-spacing:0px;line-height:120%;opacity:1&quot;&gt;&lt;br/&gt;&lt;/font&gt;&lt;/p&gt;&lt;/div&gt;" style="text;vsdxID=20;edgeStyle=none;startArrow=none;endArrow=none;startSize=5;endSize=5;strokeColor=none;spacingTop=-3;spacingBottom=-3;spacingLeft=-2;spacingRight=-2;verticalAlign=middle;html=1;labelBackgroundColor=#ffffff;rounded=0;align=center;overflow=width;fillColor=none;gradientColor=none;whiteSpace=wrap;;html=1;;rotation=0;" vertex="1" parent="1">
          <mxGeometry x="463.0099567230709" y="141.01671095338455" width="79.98" height="79.98" as="geometry" />
        </mxCell>
        <mxCell id="YiMSiMVtn8OKMZa1fjgc-68" value="" style="group;flipV=1;direction=south;" vertex="1" connectable="0" parent="1">
          <mxGeometry x="251.25" y="181" width="29" height="40" as="geometry" />
        </mxCell>
        <mxCell id="YiMSiMVtn8OKMZa1fjgc-71" style="edgeStyle=none;rounded=0;html=1;startArrow=none;startFill=0;endArrow=classic;endFill=1;jettySize=auto;orthogonalLoop=1;strokeColor=#000000;fontFamily=Helvetica;fontSize=10;fontColor=#000000;targetPerimeterSpacing=0;endSize=8;sourcePerimeterSpacing=0;startSize=0;" edge="1" parent="YiMSiMVtn8OKMZa1fjgc-68">
          <mxGeometry relative="1" as="geometry">
            <mxPoint x="28" y="10" as="targetPoint" />
            <mxPoint x="36" y="10" as="sourcePoint" />
          </mxGeometry>
        </mxCell>
        <mxCell id="YiMSiMVtn8OKMZa1fjgc-69" value="R" style="text;html=1;strokeColor=none;fillColor=none;align=center;verticalAlign=middle;whiteSpace=wrap;overflow=hidden;fontFamily=Helvetica;fontSize=10;fontColor=#000000;fontStyle=1;direction=south;" vertex="1" parent="1">
          <mxGeometry x="285.75" y="170" width="20" height="40" as="geometry" />
        </mxCell>
        <mxCell id="YiMSiMVtn8OKMZa1fjgc-78" style="edgeStyle=none;rounded=0;orthogonalLoop=1;jettySize=auto;html=1;exitX=0.5;exitY=0;exitDx=0;exitDy=0;entryX=0.006;entryY=0.802;entryDx=0;entryDy=0;entryPerimeter=0;endArrow=none;endFill=0;" edge="1" parent="1" source="YiMSiMVtn8OKMZa1fjgc-70" target="YiMSiMVtn8OKMZa1fjgc-20">
          <mxGeometry relative="1" as="geometry" />
        </mxCell>
        <mxCell id="YiMSiMVtn8OKMZa1fjgc-79" style="edgeStyle=none;rounded=0;orthogonalLoop=1;jettySize=auto;html=1;exitX=0.5;exitY=1;exitDx=0;exitDy=0;endArrow=none;endFill=0;entryX=1;entryY=0.752;entryDx=0;entryDy=0;entryPerimeter=0;" edge="1" parent="1" source="YiMSiMVtn8OKMZa1fjgc-70" target="YiMSiMVtn8OKMZa1fjgc-5">
          <mxGeometry relative="1" as="geometry">
            <mxPoint x="250" y="200" as="targetPoint" />
          </mxGeometry>
        </mxCell>
        <mxCell id="YiMSiMVtn8OKMZa1fjgc-70" value="" style="ellipse;whiteSpace=wrap;html=1;strokeColor=#1C1C1C;fillColor=none;fontFamily=Tahoma;fontSize=14;fontColor=#525252;align=center;strokeWidth=2;direction=south;" vertex="1" parent="1">
          <mxGeometry x="285.75" y="200" width="10" height="10" as="geometry" />
        </mxCell>
        <mxCell id="YiMSiMVtn8OKMZa1fjgc-74" style="edgeStyle=none;rounded=0;html=1;startArrow=none;startFill=0;endArrow=classic;endFill=1;jettySize=auto;orthogonalLoop=1;strokeColor=#000000;fontFamily=Helvetica;fontSize=10;fontColor=#000000;targetPerimeterSpacing=0;endSize=8;sourcePerimeterSpacing=0;startSize=0;" edge="1" parent="1">
          <mxGeometry relative="1" as="geometry">
            <mxPoint x="279.25" y="116.99" as="targetPoint" />
            <mxPoint x="287.25" y="116.99" as="sourcePoint" />
          </mxGeometry>
        </mxCell>
        <mxCell id="YiMSiMVtn8OKMZa1fjgc-75" value="R" style="text;html=1;strokeColor=none;fillColor=none;align=center;verticalAlign=middle;whiteSpace=wrap;overflow=hidden;fontFamily=Helvetica;fontSize=10;fontColor=#000000;fontStyle=1;direction=south;" vertex="1" parent="1">
          <mxGeometry x="285.75" y="95.99" width="20" height="40" as="geometry" />
        </mxCell>
        <mxCell id="YiMSiMVtn8OKMZa1fjgc-80" style="edgeStyle=none;rounded=0;orthogonalLoop=1;jettySize=auto;html=1;exitX=0.5;exitY=0;exitDx=0;exitDy=0;endArrow=none;endFill=0;entryX=-0.012;entryY=0.418;entryDx=0;entryDy=0;entryPerimeter=0;" edge="1" parent="1" source="YiMSiMVtn8OKMZa1fjgc-76" target="YiMSiMVtn8OKMZa1fjgc-20">
          <mxGeometry relative="1" as="geometry">
            <mxPoint x="340" y="120" as="targetPoint" />
          </mxGeometry>
        </mxCell>
        <mxCell id="YiMSiMVtn8OKMZa1fjgc-81" style="edgeStyle=none;rounded=0;orthogonalLoop=1;jettySize=auto;html=1;exitX=0.5;exitY=1;exitDx=0;exitDy=0;entryX=0.988;entryY=0.154;entryDx=0;entryDy=0;entryPerimeter=0;endArrow=none;endFill=0;" edge="1" parent="1" source="YiMSiMVtn8OKMZa1fjgc-76" target="YiMSiMVtn8OKMZa1fjgc-5">
          <mxGeometry relative="1" as="geometry" />
        </mxCell>
        <mxCell id="YiMSiMVtn8OKMZa1fjgc-76" value="" style="ellipse;whiteSpace=wrap;html=1;strokeColor=#1C1C1C;fillColor=none;fontFamily=Tahoma;fontSize=14;fontColor=#525252;align=center;strokeWidth=2;direction=south;" vertex="1" parent="1">
          <mxGeometry x="285.75" y="125.99" width="10" height="10" as="geometry" />
        </mxCell>
        <mxCell id="YiMSiMVtn8OKMZa1fjgc-77" value="&lt;div style=&quot;font-size: 1px&quot;&gt;&lt;p style=&quot;text-align:center;margin-left:0;margin-right:0;margin-top:0px;margin-bottom:0px;text-indent:0;vertical-align:middle;direction:ltr;&quot;&gt;&lt;font style=&quot;font-size:11.29px;font-family:Arial;color:#000000;direction:ltr;letter-spacing:0px;line-height:120%;opacity:1&quot;&gt;Matrix - &lt;/font&gt;&lt;font style=&quot;font-size:11.29px;font-family:Arial;color:#000000;direction:ltr;letter-spacing:0px;line-height:120%;opacity:1&quot;&gt;Server&lt;br/&gt;&lt;/font&gt;&lt;/p&gt;&lt;p style=&quot;text-align:center;margin-left:0;margin-right:0;margin-top:0px;margin-bottom:0px;text-indent:0;vertical-align:middle;direction:ltr;&quot;&gt;&lt;font style=&quot;font-size:11.29px;font-family:Arial;color:#000000;direction:ltr;letter-spacing:0px;line-height:120%;opacity:1&quot;&gt;Server API&lt;/font&gt;&lt;font style=&quot;font-size:11.29px;font-family:Arial;color:#000000;direction:ltr;letter-spacing:0px;line-height:120%;opacity:1&quot;&gt;&lt;br/&gt;&lt;/font&gt;&lt;/p&gt;&lt;/div&gt;" style="text;vsdxID=20;edgeStyle=none;startArrow=none;endArrow=none;startSize=5;endSize=5;strokeColor=none;spacingTop=-3;spacingBottom=-3;spacingLeft=-2;spacingRight=-2;verticalAlign=middle;html=1;labelBackgroundColor=#ffffff;rounded=0;align=center;overflow=width;fillColor=none;gradientColor=none;whiteSpace=wrap;;html=1;;rotation=0;" vertex="1" parent="1">
          <mxGeometry x="285.7499567230709" y="283.99671095338454" width="79.98" height="79.98" as="geometry" />
        </mxCell>
        <mxCell id="YiMSiMVtn8OKMZa1fjgc-82" value="&lt;div style=&quot;font-size: 1px&quot;&gt;&lt;p style=&quot;text-align:center;margin-left:0;margin-right:0;margin-top:0px;margin-bottom:0px;text-indent:0;vertical-align:middle;direction:ltr;&quot;&gt;&lt;font style=&quot;font-size:11.29px;font-family:Arial;color:#000000;direction:ltr;letter-spacing:0px;line-height:120%;opacity:1&quot;&gt;Matrix - Client&lt;/font&gt;&lt;font style=&quot;font-size:11.29px;font-family:Arial;color:#000000;direction:ltr;letter-spacing:0px;line-height:120%;opacity:1&quot;&gt;&lt;br&gt;&lt;/font&gt;&lt;/p&gt;&lt;p style=&quot;text-align:center;margin-left:0;margin-right:0;margin-top:0px;margin-bottom:0px;text-indent:0;vertical-align:middle;direction:ltr;&quot;&gt;&lt;font style=&quot;font-size:11.29px;font-family:Arial;color:#000000;direction:ltr;letter-spacing:0px;line-height:120%;opacity:1&quot;&gt;Server API&lt;/font&gt;&lt;font style=&quot;font-size:11.29px;font-family:Arial;color:#000000;direction:ltr;letter-spacing:0px;line-height:120%;opacity:1&quot;&gt;&lt;br&gt;&lt;/font&gt;&lt;/p&gt;&lt;/div&gt;" style="text;vsdxID=20;edgeStyle=none;startArrow=none;endArrow=none;startSize=5;endSize=5;strokeColor=none;spacingTop=-3;spacingBottom=-3;spacingLeft=-2;spacingRight=-2;verticalAlign=middle;html=1;labelBackgroundColor=#ffffff;rounded=0;align=center;overflow=width;fillColor=none;gradientColor=none;whiteSpace=wrap;;html=1;;rotation=0;" vertex="1" parent="1">
          <mxGeometry x="253.5099567230709" y="116.00671095338454" width="79.98" height="79.98" as="geometry" />
        </mxCell>
        <mxCell id="YiMSiMVtn8OKMZa1fjgc-57" value="" style="ellipse;whiteSpace=wrap;html=1;strokeColor=#1C1C1C;fillColor=none;fontFamily=Tahoma;fontSize=14;fontColor=#525252;align=center;strokeWidth=2;" vertex="1" parent="1">
          <mxGeometry x="489" y="155" width="10" height="10" as="geometry" />
        </mxCell>
        <mxCell id="YiMSiMVtn8OKMZa1fjgc-84" value="" style="group" vertex="1" connectable="0" parent="1">
          <mxGeometry x="69.99" y="40" width="59.989956723070904" height="127.97671095338454" as="geometry" />
        </mxCell>
        <mxCell id="YiMSiMVtn8OKMZa1fjgc-85" value="R" style="text;html=1;strokeColor=none;fillColor=none;align=center;verticalAlign=middle;whiteSpace=wrap;overflow=hidden;fontFamily=Helvetica;fontSize=10;fontColor=#000000;fontStyle=1" vertex="1" parent="YiMSiMVtn8OKMZa1fjgc-84">
          <mxGeometry width="40" height="20" as="geometry" />
        </mxCell>
        <mxCell id="YiMSiMVtn8OKMZa1fjgc-86" style="edgeStyle=none;rounded=0;orthogonalLoop=1;jettySize=auto;html=1;exitX=0;exitY=0.5;exitDx=0;exitDy=0;endArrow=none;endFill=0;" edge="1" parent="YiMSiMVtn8OKMZa1fjgc-84" source="YiMSiMVtn8OKMZa1fjgc-87">
          <mxGeometry relative="1" as="geometry">
            <mxPoint y="24" as="targetPoint" />
          </mxGeometry>
        </mxCell>
        <mxCell id="YiMSiMVtn8OKMZa1fjgc-87" value="" style="ellipse;whiteSpace=wrap;html=1;strokeColor=#1C1C1C;fillColor=none;fontFamily=Tahoma;fontSize=14;fontColor=#525252;align=center;strokeWidth=2;" vertex="1" parent="YiMSiMVtn8OKMZa1fjgc-84">
          <mxGeometry x="19" y="19" width="10" height="10" as="geometry" />
        </mxCell>
        <mxCell id="YiMSiMVtn8OKMZa1fjgc-88" style="edgeStyle=none;rounded=0;html=1;startArrow=none;startFill=0;endArrow=classic;endFill=1;jettySize=auto;orthogonalLoop=1;strokeColor=#000000;fontFamily=Helvetica;fontSize=10;fontColor=#000000;targetPerimeterSpacing=0;endSize=8;sourcePerimeterSpacing=0;startSize=0;" edge="1" parent="YiMSiMVtn8OKMZa1fjgc-84">
          <mxGeometry relative="1" as="geometry">
            <mxPoint x="36" y="10" as="targetPoint" />
            <mxPoint x="28" y="10" as="sourcePoint" />
          </mxGeometry>
        </mxCell>
        <mxCell id="YiMSiMVtn8OKMZa1fjgc-44" value="" style="group" vertex="1" connectable="0" parent="YiMSiMVtn8OKMZa1fjgc-84">
          <mxGeometry y="40" width="59.989956723070904" height="87.97671095338454" as="geometry" />
        </mxCell>
        <mxCell id="YiMSiMVtn8OKMZa1fjgc-45" value="R" style="text;html=1;strokeColor=none;fillColor=none;align=center;verticalAlign=middle;whiteSpace=wrap;overflow=hidden;fontFamily=Helvetica;fontSize=10;fontColor=#000000;fontStyle=1" vertex="1" parent="YiMSiMVtn8OKMZa1fjgc-44">
          <mxGeometry width="40" height="20" as="geometry" />
        </mxCell>
        <mxCell id="YiMSiMVtn8OKMZa1fjgc-51" style="edgeStyle=none;rounded=0;orthogonalLoop=1;jettySize=auto;html=1;exitX=0;exitY=0.5;exitDx=0;exitDy=0;endArrow=none;endFill=0;" edge="1" parent="YiMSiMVtn8OKMZa1fjgc-44" source="YiMSiMVtn8OKMZa1fjgc-46">
          <mxGeometry relative="1" as="geometry">
            <mxPoint y="24" as="targetPoint" />
          </mxGeometry>
        </mxCell>
        <mxCell id="YiMSiMVtn8OKMZa1fjgc-46" value="" style="ellipse;whiteSpace=wrap;html=1;strokeColor=#1C1C1C;fillColor=none;fontFamily=Tahoma;fontSize=14;fontColor=#525252;align=center;strokeWidth=2;" vertex="1" parent="YiMSiMVtn8OKMZa1fjgc-44">
          <mxGeometry x="19" y="19" width="10" height="10" as="geometry" />
        </mxCell>
        <mxCell id="YiMSiMVtn8OKMZa1fjgc-47" style="edgeStyle=none;rounded=0;html=1;startArrow=none;startFill=0;endArrow=classic;endFill=1;jettySize=auto;orthogonalLoop=1;strokeColor=#000000;fontFamily=Helvetica;fontSize=10;fontColor=#000000;targetPerimeterSpacing=0;endSize=8;sourcePerimeterSpacing=0;startSize=0;" edge="1" parent="YiMSiMVtn8OKMZa1fjgc-44">
          <mxGeometry relative="1" as="geometry">
            <mxPoint x="36" y="10" as="targetPoint" />
            <mxPoint x="28" y="10" as="sourcePoint" />
          </mxGeometry>
        </mxCell>
        <mxCell id="YiMSiMVtn8OKMZa1fjgc-89" value="&lt;div style=&quot;&quot;&gt;&lt;p style=&quot;text-align: center; margin: 0px; text-indent: 0px; vertical-align: middle; direction: ltr;&quot;&gt;&lt;font face=&quot;Arial&quot;&gt;&lt;span style=&quot;font-size: 11.29px;&quot;&gt;TiMessenger&lt;/span&gt;&lt;/font&gt;&lt;span style=&quot;font-size: 11.29px; font-family: Arial;&quot;&gt;ContactManagement&lt;/span&gt;&lt;/p&gt;&lt;/div&gt;" style="text;vsdxID=20;edgeStyle=none;startArrow=none;endArrow=none;startSize=5;endSize=5;strokeColor=none;spacingTop=-3;spacingBottom=-3;spacingLeft=-2;spacingRight=-2;verticalAlign=middle;html=1;labelBackgroundColor=#ffffff;rounded=0;align=center;overflow=width;fillColor=none;gradientColor=none;whiteSpace=wrap;;html=1;;rotation=0;" vertex="1" parent="1">
          <mxGeometry x="160" y="16.01" width="177" height="74.98" as="geometry" />
        </mxCell>
        <mxCell id="YiMSiMVtn8OKMZa1fjgc-90" style="edgeStyle=none;rounded=0;orthogonalLoop=1;jettySize=auto;html=1;exitX=1;exitY=0.5;exitDx=0;exitDy=0;entryX=0;entryY=0.07;entryDx=0;entryDy=0;entryPerimeter=0;endArrow=none;endFill=0;" edge="1" parent="1" source="YiMSiMVtn8OKMZa1fjgc-87" target="YiMSiMVtn8OKMZa1fjgc-20">
          <mxGeometry relative="1" as="geometry" />
        </mxCell>
        <mxCell id="YiMSiMVtn8OKMZa1fjgc-52" value="&lt;div style=&quot;font-size: 1px&quot;&gt;&lt;p style=&quot;text-align:center;margin-left:0;margin-right:0;margin-top:0px;margin-bottom:0px;text-indent:0;vertical-align:middle;direction:ltr;&quot;&gt;&lt;font style=&quot;font-size:11.29px;font-family:Arial;color:#000000;direction:ltr;letter-spacing:0px;line-height:120%;opacity:1&quot;&gt;Matrix - Client&lt;/font&gt;&lt;font style=&quot;font-size:11.29px;font-family:Arial;color:#000000;direction:ltr;letter-spacing:0px;line-height:120%;opacity:1&quot;&gt;&lt;br&gt;&lt;/font&gt;&lt;/p&gt;&lt;p style=&quot;text-align:center;margin-left:0;margin-right:0;margin-top:0px;margin-bottom:0px;text-indent:0;vertical-align:middle;direction:ltr;&quot;&gt;&lt;font style=&quot;font-size:11.29px;font-family:Arial;color:#000000;direction:ltr;letter-spacing:0px;line-height:120%;opacity:1&quot;&gt;Server API&lt;/font&gt;&lt;font style=&quot;font-size:11.29px;font-family:Arial;color:#000000;direction:ltr;letter-spacing:0px;line-height:120%;opacity:1&quot;&gt;&lt;br&gt;&lt;/font&gt;&lt;/p&gt;&lt;/div&gt;" style="text;vsdxID=20;edgeStyle=none;startArrow=none;endArrow=none;startSize=5;endSize=5;strokeColor=none;spacingTop=-3;spacingBottom=-3;spacingLeft=-2;spacingRight=-2;verticalAlign=middle;html=1;labelBackgroundColor=#ffffff;rounded=0;align=center;overflow=width;fillColor=none;gradientColor=none;whiteSpace=wrap;;html=1;;rotation=0;" vertex="1" parent="1">
          <mxGeometry x="208.5099567230709" y="46.006710953384534" width="79.98" height="82.98" as="geometry" />
        </mxCell>
      </root>
    </mxGraphModel>
  </diagram>
</mxfile>
